<?xml version="1.0" encoding="utf-8"?>
<!-- Generator: Adobe Illustrator 25.2.1, SVG Export Plug-In . SVG Version: 6.00 Build 0)  -->
<svg version="1.1" id="artwork" xmlns="http://www.w3.org/2000/svg" xmlns:xlink="http://www.w3.org/1999/xlink" x="0px" y="0px"
	 viewBox="0 0 242.42 181.37" style="enable-background:new 0 0 242.42 181.37;" xml:space="preserve">
<style type="text/css">
	.st0{fill:#A6A8AC;}
	.st1{fill:#004811;}
	.st2{fill:#E8D667;}
	.st3{fill:#FCFFFE;}
</style>
<path id="gray" class="st0" d="M0.89,19.86c1.56-9.26,22.96-10.17,43.67-6.75c10.26-4,25.34-8.01,37.35-9.32
	c11.86-1.29,35.71-1.29,51.32,0.19c29.98,2.85,64.76,21.1,80.39,46.18c-0.57,4.09,1.09,10.98,3.58,14.25
	c3.92,1.22,21.41,9.27,23.51,15.96c1.04,11.81-4.14,24.62-10.91,32.86c-0.57,4.77-4.59,12.18-8.77,16.36
	c0.48,2.16,0.97,4.59,0.4,7.41c-14.46,18.34-37.98,38.15-68.63,42.76c2.92-39.6-16.11-47.13-30.22-47.13
	c-11.97,0-24.23,10.17-27.23,17.58c-2.67,6.62-3.02,16.48-0.53,24.22c-10.44-2.84-17.62-9.79-21.48-14.41
	c-3.26,3.26-2.65,15.85-3.03,20.25c-20.72-15.95-32.58-33.48-37.85-53.34c-1.22,5.78-1.75,9.53-1.49,15.58
	C14.68,124.85,0.5,85.09,3.02,61.18c3.59-5.03,8.06-9.63,12.52-13.67C7.39,41.06-0.49,28.04,0.89,19.86z"/>
<path id="green" class="st1" d="M156.46,175.67c0.59-16.63-2.81-29.04-10.13-36.92c-5.78-6.23-13.99-9.52-23.74-9.52
	c-13.9,0-27.07,11.49-30.4,19.72c-2.31,5.72-3.01,13.21-2.06,20.13c-6.7-3.55-14.78-10.87-17.45-16.09
	c-3.42,5.03-5.53,12.54-5.53,20.34c-16.34-13.88-26.92-29.31-31.37-47.26c-1.07-4.32-2.72-12.16-2.72-17.2
	c-2.85,6.56-4.27,15.6-5.16,24.27C14.71,114.08,5.8,85.32,6.34,62.43c2.95-4,6.72-8.06,11.5-12.39l3-2.71l-3.17-2.51
	C9.72,38.54,3.21,26.69,4.27,20.43c0.45-2.64,5.87-5.73,19.69-5.73c6.05,0,15.31,1.25,21.16,2.12C60.3,10.65,84.03,6.26,105.21,6.26
	c10.1,0,20.2,0.41,27.7,1.12c30.39,2.89,62.63,21.16,77.21,43.63c-0.24,5.01,1.65,11.89,4.37,15.47l0.66,0.87l1.05,0.32
	c5.18,1.61,19.25,9,21.15,13.43c0.72,9.81-3.25,21.52-10.18,29.96l-0.63,0.77l-0.12,0.99c-0.47,4.7-5.47,12.69-9.48,16.04
	c0.8,1.82,1.32,4.15,1.09,7.08C207.45,148.14,186.93,169.56,156.46,175.67z"/>
<path id="yellow" class="st2" d="M44.85,27.64c-6.84-0.54-16.55-2-17.22,2.66c-0.56,3.95,5.33,4.39,12.08,5.25
	c-1.25,1.58-1.93,4.34-1.32,6.35c3.04-0.67,7.03-0.67,10.26-0.19c-3.94,3.94-9.22,8.92-11.49,15.49C46,50.07,61.86,43.7,74.87,43.5
	C58.7,51.37,42.48,59.76,37.82,80.57c10.74-10.17,25.94-17.2,47.27-17.58c-13.82,8.74-33.11,19.58-26.01,42.94
	c5.25-15.86,16.33-21.88,33.84-24.97c-7.5,11.69-11.96,19.95-6.07,40.28c1.14-8.36,4.37-17.87,8.93-21.19
	c-0.95,8.36-0.86,22.24,2.56,30.01c-4.93,3.82-10.82,14.65-12.72,19.79c-11.97-10.45-16.82-22.24-17.58-34.11
	c-2.38,3.52-0.19,22.81,1.43,28.67c-2.09,2.28-3.52,5.26-4.87,9.35c-12.35-9.33-21.69-21.77-24.97-34.41
	c-1.49-5.73-3.28-23.76-2.42-29.84c-2,2.64-7.63,16.32-9.12,20.38c-5.18-5.84-18.46-37.27-15.11-45.9
	c3.94-5.37,15.04-13.76,20.38-17.68C25.85,42.28,17.2,32.3,16.25,25.36C22.14,23.84,38.01,24.41,44.85,27.64z M65.28,20.42
	c13.21-1.33,44.84-0.95,62.99,6.24c-2.75-4.34-11.69-8.79-15.74-10.23c32.48,2.38,40.08,10.74,47.99,22.52
	c5.23,7.79,10.34,14.35,11.76,14.35c1.43,0,1.62-1.81,1.33-4.28c-0.29-2.47-3.42-9.12-2.19-9.79c1.24-0.67,4.44,7.9,5.32,10.26
	c0.71,1.89,1.44,4.77,3.34,5.25c1.9,0.48,8.14-0.73,9.12-3.81c0.81-2.55-1.32-8.75-5.13-12.94c-10.89-11.99-32.7-22.23-55.73-25.11
	C107.42,10.26,82.77,13.1,65.28,20.42z M172,123.06c-0.76,1.99-16.9,0.07-20.9,2.17c5.6,4.19,11.39,19.3,11.04,30.42
	c4.91-0.77,12.82-5.02,16.71-8.91c-0.4,3.31-4.63,7.29-7.38,10.04c6.13-0.75,16.02-8.07,20.68-13.25c-0.3,4.33-9.42,12.5-15,16.13
	c15.66-1.83,24.88-13.8,26.81-22.26c5.29,0,7.17-0.87,6.62-3.84c-2.34-12.73-34.59-19.53-44.47-21.65
	c-11.02-2.36-41.81-6.16-58.35,6.67c3.9-27.94,26.7-52.74,54.73-53.04c-1.13,9.61,2.67,24.72,9.13,29.85
	c3.46-1.67,7.51-6.56,9.69-8.74c1.33,2.95,0.25,11.56,0.39,15.97c3.22,3.9,15.76,9.49,21.47,8.54c3.85-3.85,7.7-7.79,9.88-11.02
	c0.48-7.41-4.35-18.13-8.15-19.18c0.68,2.94,0.85,7.96,0.54,11.75c-3.6-5.88-11.49-13.67-14.9-15.99c-1.15-0.78-2.48-1.91-2.48-2.96
	c0-1.4,1-2.19,2.75-3.3c-8.64-4.21-24.41-9.52-33.72-9.61c-24.71-0.25-49.7,23.32-54.64,45.36c-1.54,6.88,0.37,18.9,4.55,20.14
	C118.97,118.05,152.23,114.59,172,123.06z M215.38,101.19c-1.57,2.57-5.92,7.91-8.91,10.9c2,0.57,8.13,0,10.48-1.07
	c2.35-1.07-1.28,0-2.57,0c3.85-1.33,10.41-8.6,11.97-11.26c1.17-1.98-1.61,0.53-4.17,1.82c0.93-0.93,5.6-6.19,5.6-8.09
	C224.08,97.2,218.66,99.77,215.38,101.19z"/>
<path id="white_1_" class="st3" d="M16.25,25.36c2.19-2.57,8.7-3.38,13.76-3.38c7.82,0,24.35,3.1,31.36,6.09
	c-2,1.21-4.34,1.25-6.7,1.25c-1.54,0-8.03-0.65-9.66-1.6C41.71,25.79,26.13,23.18,16.25,25.36z M137.41,53.3h21.81l-7.98-4.56
	l-3.27,4.37c0,0-2.85-5.77-3.86-7.23c-0.99-1.44-11.76-6.19-14.04-5.82C128.18,40.36,135.02,50.91,137.41,53.3z M192.34,58.53
	c-0.51,2.34,3.18,2.92,6.72,3.88c2.78,0.75,5.4,1.58,6.29,1.75c0.38-3.01-0.16-5.29-1.96-7.33c-1.05,0.57-4.24,5.41-4.24,5.41
	s-1.66-2.51-2.18-3.75C195.28,58.07,193.71,58.07,192.34,58.53z M196.42,45.03c1.06,0.86,2.5,0.12,1.82-0.76
	c-6.88-8.86-21.49-18.91-36.24-25.15c-13.64-5.77-40.55-9.11-50.91-7.19C155.35,10.94,185.67,36.3,196.42,45.03z M213.81,125.28
	c3.14-1.64,7.55-7.02,8.55-11.09c-2.53,2.21-11.05,5.99-14.72,6.42L213.81,125.28z M214.54,111.74c3.12-0.64,9.39-2.99,11.96-6.41
	c2.57-3.42,5.63-7.63,6.27-10.98c-1.46,1.46-5.36,4.44-6.17,4.93c-0.62,1.07-10.09,11.66-12.91,11.85c1.35-0.03,4.42-0.81,3.94-0.45
	C217.21,111,214.54,111.74,214.54,111.74z M157.17,106.23c0-3.47,0.33-14.04,0.33-14.04l-14.36,8.72l-0.22-12.54
	c-4.94,2.6-14.36,11.39-17.34,15.38c-1.15-3.34-1.84-8.54-1.25-12.39c-4.81,3.88-12.02,17.29-12.4,21.28
	C125.29,105.97,145.64,104.54,157.17,106.23z M146.82,82.66c-0.29,3.21-1.33,10.83-1.62,13.59c2.4-1.62,11.49-7.67,13.96-9.12
	c-3.06-5.23-1.44-8.6-9.4-8.84c-9.3-0.28-16.34,4.51-22.14,9.69c0,2.02,0.18,6.56,0.18,6.56C130.89,90.72,140.19,83.3,146.82,82.66z
	 M160.98,103.28c2.02-1.16,4.51-2.99,5.99-4.47c-0.95-1.76-3.47-5.32-5.22-6.75C161.75,94.39,161.36,99.63,160.98,103.28z
	 M166.01,108.04c1.08,0.61,7.46,2.42,8.89,2.42c1.04,0,4.79-15.81,3.57-15.06C177.14,97.68,168.47,105.17,166.01,108.04z"/>
</svg>
